<?xml version="1.0" encoding="utf-8"?>
<!-- Generator: Adobe Illustrator 26.0.0, SVG Export Plug-In . SVG Version: 6.00 Build 0)  -->
<svg version="1.1" id="Capa_1" xmlns="http://www.w3.org/2000/svg" xmlns:xlink="http://www.w3.org/1999/xlink" x="0px" y="0px"
	 viewBox="0 0 16 16" style="enable-background:new 0 0 16 16;" xml:space="preserve">
<style type="text/css">
	.st0{fill:#FFFFFF;}
</style>
<g>
	<path class="st0" d="M2.1,7.1c0.7,0.4,1.4,0.7,2.2,1.1C4.4,7.5,4.6,7,4.7,6.4C4.8,5.8,4.9,5.3,5,4.7c0-0.2,0-0.5-0.1-0.8
		C4.9,3.6,4.9,3.5,5.2,3.4c0.5-0.1,0.9-0.3,1.4-0.3c0.5,0,0.9,0.6,0.8,1.1C7.1,5.5,6.9,6.7,6.6,7.9c-0.1,0.3,0,0.3,0.3,0.3
		c1.3-0.1,2.4-0.4,3.4-1.2c0.8-0.6,1.3-1.3,1.5-2.3c0.4-1.6-0.4-2.4-1.8-2.7c-2-0.4-4,0.1-5.6,1.4C3.8,4,3.3,4.6,2.7,5.1
		C2.6,5.2,2.5,5.3,2.4,5.4C1.7,4.3,2,3.3,2.8,2.6c1.1-0.9,2.4-1.4,3.8-1.7C7.3,0.7,8,0.7,8.7,0.6c1-0.2,2.1,0,3.1,0.2
		C13,1.1,13.8,2,14,3.2c0.3,1.4-0.1,2.7-1.1,3.8C11.6,8.4,10,9.2,8.1,9.5C7.6,9.5,7,9.5,6.4,9.6c-0.1,0-0.1,0.1-0.2,0.2
		C6,10.9,5.8,12,5.5,13.2c-0.1,0.5-0.3,1.1-0.1,1.7c0,0-0.1,0.2-0.2,0.2c-0.5,0.1-1,0.3-1.5,0.4c-0.5,0.1-0.7-0.2-0.6-0.7
		c0.1-0.7,0.2-1.5,0.3-2.2c0.2-1,0.4-1.9,0.6-2.9c0-0.2,0-0.3-0.2-0.4C3.4,9.1,3,9,2.6,8.7C2,8.4,1.8,7.8,2.1,7.1z"/>
</g>
</svg>
